<svg width="191" height="36" fill="none" xmlns="http://www.w3.org/2000/svg"><path d="M41.854 27.161c-1.058 0-2.009-.184-2.852-.552-.828-.383-1.48-.905-1.955-1.564-.475-.675-.72-1.449-.736-2.323h2.231c.077.751.383 1.388.92 1.91.552.505 1.35.758 2.392.758.997 0 1.779-.245 2.346-.736.583-.506.874-1.15.874-1.932 0-.613-.169-1.112-.506-1.495a3.231 3.231 0 00-1.265-.874c-.506-.2-1.188-.414-2.047-.644-1.058-.276-1.909-.552-2.553-.828a4.24 4.24 0 01-1.633-1.288c-.445-.598-.667-1.395-.667-2.392 0-.874.222-1.648.667-2.323.445-.675 1.066-1.196 1.863-1.564.813-.368 1.74-.552 2.783-.552 1.503 0 2.73.376 3.68 1.127.966.751 1.51 1.748 1.633 2.99h-2.3c-.077-.613-.399-1.15-.966-1.61-.567-.475-1.319-.713-2.254-.713-.874 0-1.587.23-2.139.69-.552.445-.828 1.073-.828 1.886 0 .583.161 1.058.483 1.426.337.368.744.652 1.219.851.49.184 1.173.399 2.047.644 1.058.291 1.909.583 2.553.874a4.123 4.123 0 011.656 1.311c.46.583.69 1.38.69 2.392a4.22 4.22 0 01-.621 2.208c-.414.69-1.027 1.25-1.84 1.68-.813.428-1.771.643-2.875.643zm13.108.046c-1.18 0-2.254-.268-3.22-.805a5.851 5.851 0 01-2.254-2.277c-.537-.997-.805-2.147-.805-3.45 0-1.288.276-2.423.828-3.404.567-.997 1.334-1.756 2.3-2.277.966-.537 2.047-.805 3.243-.805 1.196 0 2.277.268 3.243.805a5.65 5.65 0 012.277 2.254c.567.981.851 2.124.851 3.427s-.291 2.453-.874 3.45a5.922 5.922 0 01-2.323 2.277c-.981.537-2.07.805-3.266.805zm0-1.84a4.42 4.42 0 002.116-.529c.66-.353 1.188-.882 1.587-1.587.414-.705.621-1.564.621-2.576s-.2-1.87-.598-2.576c-.399-.705-.92-1.227-1.564-1.564a4.288 4.288 0 00-2.093-.529c-.767 0-1.472.176-2.116.53-.629.336-1.135.858-1.518 1.563s-.575 1.564-.575 2.576c0 1.027.184 1.894.552 2.6.383.704.89 1.233 1.518 1.586a4.308 4.308 0 002.07.506zM65.465 9.98V27h-2.093V9.98h2.093zm13.94 4.416V27h-2.093v-1.863c-.398.644-.958 1.15-1.679 1.518-.705.353-1.487.53-2.346.53-.981 0-1.863-.2-2.645-.599-.782-.414-1.403-1.027-1.863-1.84-.444-.813-.667-1.802-.667-2.967v-7.383h2.07v7.107c0 1.242.314 2.2.943 2.875.629.66 1.487.99 2.576.99 1.12 0 2.001-.346 2.645-1.036.644-.69.966-1.694.966-3.013v-6.923h2.093zm5.282 1.725v7.43c0 .612.13 1.05.391 1.31.26.245.713.368 1.357.368h1.541V27H86.09c-1.165 0-2.04-.268-2.622-.805-.583-.537-.874-1.418-.874-2.645v-7.429h-1.633v-1.725h1.633v-3.174h2.093v3.174h3.289v1.725h-3.289zm6.101-3.771c-.399 0-.736-.139-1.012-.415a1.377 1.377 0 01-.414-1.012c0-.399.138-.736.414-1.012a1.377 1.377 0 011.012-.414c.383 0 .705.138.966.414.276.276.414.613.414 1.012s-.138.736-.414 1.012c-.26.276-.583.414-.966.414zm1.012 2.046V27h-2.093V14.396H91.8zm8.259 12.811c-1.18 0-2.254-.268-3.22-.805a5.852 5.852 0 01-2.254-2.277c-.536-.997-.805-2.147-.805-3.45 0-1.288.276-2.423.828-3.404.567-.997 1.334-1.756 2.3-2.277.966-.537 2.047-.805 3.243-.805 1.196 0 2.277.268 3.243.805a5.65 5.65 0 012.277 2.254c.567.981.851 2.124.851 3.427s-.291 2.453-.874 3.45a5.921 5.921 0 01-2.323 2.277c-.981.537-2.07.805-3.266.805zm0-1.84a4.42 4.42 0 002.116-.529c.659-.353 1.188-.882 1.587-1.587.414-.705.621-1.564.621-2.576s-.199-1.87-.598-2.576c-.399-.705-.92-1.227-1.564-1.564a4.288 4.288 0 00-2.093-.529c-.766 0-1.472.176-2.116.53-.629.336-1.135.858-1.518 1.563s-.575 1.564-.575 2.576c0 1.027.184 1.894.552 2.6.383.704.89 1.233 1.518 1.586a4.309 4.309 0 002.07.506zm14.551-11.201c1.533 0 2.775.468 3.726 1.403.951.92 1.426 2.254 1.426 4.002v7.43h-2.07v-7.13c0-1.258-.314-2.217-.943-2.876-.629-.675-1.487-1.012-2.576-1.012-1.104 0-1.986.345-2.645 1.035-.644.69-.966 1.694-.966 3.013v6.97h-2.093V14.395h2.093v1.794a4.174 4.174 0 011.679-1.495 5.316 5.316 0 012.369-.529zm12.849 12.995c-1.058 0-2.009-.184-2.852-.552-.828-.383-1.48-.905-1.955-1.564-.475-.675-.721-1.449-.736-2.323h2.231c.077.751.383 1.388.92 1.91.552.505 1.349.758 2.392.758.997 0 1.779-.245 2.346-.736.583-.506.874-1.15.874-1.932 0-.613-.169-1.112-.506-1.495a3.23 3.23 0 00-1.265-.874c-.506-.2-1.188-.414-2.047-.644-1.058-.276-1.909-.552-2.553-.828a4.238 4.238 0 01-1.633-1.288c-.445-.598-.667-1.395-.667-2.392 0-.874.222-1.648.667-2.323.445-.675 1.066-1.196 1.863-1.564.813-.368 1.74-.552 2.783-.552 1.503 0 2.729.376 3.68 1.127.966.751 1.51 1.748 1.633 2.99h-2.3c-.077-.613-.399-1.15-.966-1.61-.567-.475-1.319-.713-2.254-.713-.874 0-1.587.23-2.139.69-.552.445-.828 1.073-.828 1.886 0 .583.161 1.058.483 1.426.337.368.744.652 1.219.851.491.184 1.173.399 2.047.644 1.058.291 1.909.583 2.553.874a4.123 4.123 0 011.656 1.311c.46.583.69 1.38.69 2.392a4.22 4.22 0 01-.621 2.208c-.414.69-1.027 1.25-1.84 1.68-.813.428-1.771.643-2.875.643zm10.164-11.04v7.43c0 .612.13 1.05.391 1.31.261.245.713.368 1.357.368h1.541V27h-1.886c-1.165 0-2.039-.268-2.622-.805-.583-.537-.874-1.418-.874-2.645v-7.429h-1.633v-1.725h1.633v-3.174h2.093v3.174h3.289v1.725h-3.289zm7.113.322a4.04 4.04 0 011.564-1.679c.69-.399 1.526-.598 2.507-.598v2.162h-.552c-2.346 0-3.519 1.273-3.519 3.818V27h-2.093V14.396h2.093v2.047zm11.179 10.764c-1.181 0-2.254-.268-3.22-.805a5.85 5.85 0 01-2.254-2.277c-.537-.997-.805-2.147-.805-3.45 0-1.288.276-2.423.828-3.404.567-.997 1.334-1.756 2.3-2.277.966-.537 2.047-.805 3.243-.805 1.196 0 2.277.268 3.243.805a5.65 5.65 0 012.277 2.254c.567.981.851 2.124.851 3.427s-.291 2.453-.874 3.45a5.921 5.921 0 01-2.323 2.277c-.981.537-2.07.805-3.266.805zm0-1.84a4.42 4.42 0 002.116-.529c.659-.353 1.188-.882 1.587-1.587.414-.705.621-1.564.621-2.576s-.199-1.87-.598-2.576c-.399-.705-.92-1.227-1.564-1.564a4.288 4.288 0 00-2.093-.529c-.767 0-1.472.176-2.116.53-.629.336-1.135.858-1.518 1.563s-.575 1.564-.575 2.576c0 1.027.184 1.894.552 2.6.383.704.889 1.233 1.518 1.586a4.31 4.31 0 002.07.506zm14.551-11.201c1.533 0 2.775.468 3.726 1.403.951.92 1.426 2.254 1.426 4.002v7.43h-2.07v-7.13c0-1.258-.314-2.217-.943-2.876-.629-.675-1.487-1.012-2.576-1.012-1.104 0-1.986.345-2.645 1.035-.644.69-.966 1.694-.966 3.013v6.97h-2.093V14.395h2.093v1.794a4.174 4.174 0 011.679-1.495 5.316 5.316 0 012.369-.529zm12.964.024c1.088 0 2.039.237 2.852.712.828.475 1.441 1.073 1.84 1.794v-2.3h2.116v12.88c0 1.15-.246 2.17-.736 3.06a5.21 5.21 0 01-2.116 2.115c-.905.506-1.963.76-3.174.76-1.656 0-3.036-.392-4.14-1.174-1.104-.782-1.756-1.848-1.955-3.197h2.07c.23.767.705 1.38 1.426 1.84.72.475 1.587.713 2.599.713 1.15 0 2.085-.36 2.806-1.08.736-.722 1.104-1.734 1.104-3.037v-2.645c-.414.736-1.028 1.35-1.84 1.84-.813.49-1.764.736-2.852.736-1.12 0-2.139-.276-3.059-.828-.905-.552-1.618-1.326-2.139-2.323-.522-.997-.782-2.131-.782-3.404 0-1.288.26-2.415.782-3.38.521-.982 1.234-1.741 2.139-2.278.92-.537 1.939-.805 3.059-.805zm4.692 6.485c0-.95-.192-1.779-.575-2.484-.384-.705-.905-1.242-1.564-1.61a4.103 4.103 0 00-2.139-.575c-.782 0-1.495.184-2.139.552-.644.368-1.158.905-1.541 1.61-.384.705-.575 1.533-.575 2.484 0 .966.191 1.81.575 2.53.383.705.897 1.25 1.541 1.633a4.235 4.235 0 002.139.552c.782 0 1.495-.184 2.139-.552a4.124 4.124 0 001.564-1.633c.383-.72.575-1.556.575-2.507z" fill="#5F6062"/><path d="M21.393 5.97L15.933.383c-.5-.51-1.312-.51-1.81 0L2.232 12.54c-2.975 3.042-2.975 7.974 0 11.014a7.611 7.611 0 002.23 1.576L21.387 7.824s.003 0 .006-.003c.5-.513.5-1.34 0-1.85z" fill="#00ABDF"/><path d="M15.809 35.614l11.89-12.157c2.974-3.043 2.974-7.978 0-11.017a7.603 7.603 0 00-2.23-1.573L8.543 28.175s-.003 0-.006.007c-.5.51-.5 1.337 0 1.85l5.461 5.585c.5.51 1.311.51 1.81 0v-.003z" fill="#0079C1"/><path d="M16.892 12.42L4.47 25.123a7.487 7.487 0 008.58-1.556l12.422-12.7a7.487 7.487 0 00-8.579 1.557v-.004z" fill="#00447C"/><path d="M4.868 11.839c-.708 0-1.4.055-2.085.139l-.55.562c-2.975 3.042-2.975 7.974 0 11.013a7.613 7.613 0 002.23 1.576L14.53 14.834a17.036 17.036 0 00-9.662-2.998v.004z" fill="#54BCEB"/><path d="M8.544 28.175s-.003 0-.006.007c-.5.51-.5 1.337 0 1.85l5.461 5.585c.5.51 1.311.51 1.81 0 0 0 3.21-3.281 6.418-6.563-.132-4.092-1.598-7.842-3.995-10.784l-9.688 9.905z" fill="#0093D0"/><path d="M4.47 25.123a7.487 7.487 0 008.578-1.556l5.193-5.31a17.637 17.637 0 00-3.714-3.42L4.469 25.12v.003z" fill="#174A7C"/><path d="M0 18.35a7.814 7.814 0 002.217 5.207 7.61 7.61 0 002.23 1.576l6.558-6.709A15.546 15.546 0 005.4 17.372c-1.977 0-3.714.358-5.401.978z" fill="#72CDF4"/><path d="M15.487 21.064L8.53 28.175s-.003 0-.006.006a1.331 1.331 0 000 1.85l5.461 5.585c.5.51 1.311.51 1.81 0L21 30.297a16.37 16.37 0 00-5.512-9.23v-.003z" fill="#009DDC"/><path d="M4.457 25.123a7.486 7.486 0 008.579-1.556l2.46-2.516a15.842 15.842 0 00-4.488-2.626l-6.551 6.698z" fill="#005581"/><path d="M21.4 7.825s.003 0 .006-.004c.237-.245.354-.558.363-.878L4.144 24.963c.108.057.215.119.329.17L21.4 7.825z" fill="#0096D6"/><path d="M25.768 11.025c-.101-.052-.199-.11-.303-.158L8.538 28.175s-.003 0-.007.007c-.23.233-.347.536-.366.843l17.603-17.997v-.003z" fill="#00ABDF"/></svg>