<svg width="196" height="24" fill="none" xmlns="http://www.w3.org/2000/svg"><g clip-path="url(#clip0_17_1075)"><path d="M11.85 9.255A8.703 8.703 0 015.115.795H.195A13.59 13.59 0 006.01 11.941 13.596 13.596 0 00.186 23.087h4.928a8.696 8.696 0 016.737-8.46V9.256z" fill="#FF5510"/><path d="M90.677 23.92a8.776 8.776 0 01-8.761-8.757V8.758A8.756 8.756 0 0190.677 0a8.764 8.764 0 018.762 8.758v6.405a8.756 8.756 0 01-8.761 8.758zm0-19.006a3.854 3.854 0 00-3.845 3.844v6.405a3.846 3.846 0 003.847 3.75 3.85 3.85 0 003.846-3.75V8.758a3.85 3.85 0 00-3.848-3.847M71.728.748v8.734h-7.693V.748h-4.919v22.38h4.919v-8.73h7.694v8.73h4.915V.748h-4.916zm-18.274 7.91a8.756 8.756 0 00-8.761-8.757 8.764 8.764 0 00-8.762 8.757v14.47h4.918V16.52h7.694v6.607h4.916V8.658h-.005zm-4.91 2.94h-7.695v-2.84a3.845 3.845 0 015.342-3.64 3.848 3.848 0 012.352 3.64v2.84zm73.477-2.94a8.762 8.762 0 00-17.524 0v14.47h4.916V16.52h7.696v6.607h4.916V8.658h-.004zm-4.912 2.94h-7.696v-2.84a3.848 3.848 0 017.696 0v2.84zm-91.297.343A13.597 13.597 0 0031.635.795H26.72a8.692 8.692 0 01-8.345 8.673V.772h-4.918v22.356h4.919v-8.713a8.7 8.7 0 018.344 8.672h4.916a13.588 13.588 0 00-5.823-11.146z" fill="#fff"/></g><path d="M140.603 21.956h-4.029l-.597 1.784H132l4.421-11.8h4.369l4.404 11.8H141.2l-.597-1.784zm-.922-2.783l-1.092-3.283-1.093 3.283h2.185zm6.033-1.35c0-1.167.239-2.206.717-3.117a5.17 5.17 0 012.082-2.116c.899-.511 1.957-.767 3.175-.767 1.047 0 1.98.194 2.799.583a5.014 5.014 0 012.014 1.617c.524.7.871 1.517 1.041 2.45h-3.994a2.052 2.052 0 00-.785-.9 1.998 1.998 0 00-1.144-.333c-.637 0-1.143.233-1.519.7-.364.466-.546 1.094-.546 1.883 0 .789.182 1.417.546 1.883.376.467.882.7 1.519.7.433 0 .814-.105 1.144-.316.341-.223.603-.528.785-.917h3.994c-.17.933-.517 1.75-1.041 2.45a5.146 5.146 0 01-2.014 1.633c-.819.378-1.752.567-2.799.567-1.218 0-2.276-.25-3.175-.75a5.28 5.28 0 01-2.082-2.133c-.478-.911-.717-1.95-.717-3.117zm22.683-5.883v2.933h-3.209v8.867h-3.789v-8.867h-3.175V11.94h10.173zm4.817 0v11.8h-3.789v-11.8h3.789zm13.881 0l-4.062 11.8h-4.899l-4.062-11.8h4.028l2.492 8.116 2.475-8.116h4.028zm4.638 2.95v1.45h3.755v2.783h-3.755v1.667H196v2.95h-8.056v-11.8H196v2.95h-4.267z" fill="#00A7E1"/><defs><clipPath id="clip0_17_1075"><path fill="#fff" d="M0 0h122.221v23.921H0z"/></clipPath></defs></svg>