<svg width="270" height="51" fill="none" xmlns="http://www.w3.org/2000/svg"><path d="M59.293 38.478c-1.499 0-2.845-.26-4.04-.782-1.173-.543-2.096-1.282-2.77-2.215-.673-.956-1.02-2.053-1.042-3.291h3.16a4.26 4.26 0 001.304 2.704c.782.717 1.911 1.075 3.388 1.075 1.412 0 2.52-.347 3.324-1.042.825-.717 1.238-1.63 1.238-2.737 0-.87-.239-1.575-.717-2.118a4.579 4.579 0 00-1.792-1.238c-.717-.283-1.683-.587-2.9-.913-1.499-.39-2.704-.782-3.617-1.173-.89-.39-1.661-1-2.313-1.825-.63-.847-.945-1.976-.945-3.388 0-1.238.315-2.335.945-3.291.63-.956 1.51-1.695 2.64-2.216 1.15-.521 2.465-.782 3.942-.782 2.129 0 3.866.532 5.213 1.597 1.369 1.064 2.14 2.476 2.313 4.236h-3.258c-.108-.87-.565-1.63-1.368-2.281-.804-.674-1.868-1.01-3.194-1.01-1.238 0-2.248.325-3.03.977-.782.63-1.173 1.52-1.173 2.672 0 .825.228 1.499.684 2.02a4.861 4.861 0 001.727 1.206c.696.26 1.662.565 2.9.912 1.5.413 2.705.826 3.617 1.238.912.391 1.694 1.01 2.346 1.858.652.825.978 1.954.978 3.388a5.98 5.98 0 01-.88 3.128c-.587.978-1.456 1.77-2.607 2.379-1.151.608-2.509.912-4.073.912zm18.57.065c-1.673 0-3.193-.38-4.562-1.14-1.347-.76-2.41-1.836-3.193-3.226-.76-1.412-1.14-3.041-1.14-4.887 0-1.825.39-3.432 1.173-4.823.803-1.412 1.89-2.487 3.258-3.226 1.369-.76 2.9-1.14 4.594-1.14 1.695 0 3.226.38 4.595 1.14 1.368.74 2.443 1.803 3.225 3.194.804 1.39 1.206 3.008 1.206 4.855 0 1.846-.413 3.475-1.238 4.887a8.388 8.388 0 01-3.291 3.226c-1.39.76-2.933 1.14-4.627 1.14zm0-2.606a6.26 6.26 0 002.998-.75c.934-.5 1.683-1.249 2.248-2.248.586-1 .88-2.216.88-3.65 0-1.433-.283-2.65-.848-3.649-.564-.999-1.303-1.738-2.215-2.215a6.07 6.07 0 00-2.965-.75c-1.086 0-2.086.25-2.998.75-.89.477-1.607 1.216-2.15 2.215-.544 1-.815 2.216-.815 3.65 0 1.455.26 2.682.782 3.681.543 1 1.26 1.75 2.15 2.249a6.106 6.106 0 002.933.717zm14.879-21.799V38.25h-2.965V14.138h2.965zm19.749 6.256V38.25h-2.965v-2.64c-.565.913-1.358 1.63-2.379 2.151-.999.5-2.107.75-3.323.75-1.391 0-2.64-.283-3.748-.847-1.107-.587-1.987-1.456-2.639-2.607-.63-1.151-.945-2.553-.945-4.203v-10.46h2.933v10.069c0 1.76.445 3.117 1.336 4.073.89.934 2.107 1.4 3.649 1.4 1.586 0 2.835-.488 3.747-1.466.912-.977 1.369-2.4 1.369-4.268v-9.808h2.965zm7.482 2.444v10.524c0 .87.185 1.488.554 1.858.37.347 1.01.521 1.923.521h2.183v2.51h-2.672c-1.651 0-2.889-.381-3.714-1.141-.826-.76-1.239-2.01-1.239-3.748V22.838h-2.313v-2.444h2.313v-4.496h2.965v4.496h4.66v2.444h-4.66zm8.643-5.344a1.95 1.95 0 01-1.433-.586 1.95 1.95 0 01-.587-1.434c0-.565.196-1.042.587-1.433a1.95 1.95 0 011.433-.587c.544 0 1 .196 1.369.587.391.39.586.868.586 1.433a1.95 1.95 0 01-.586 1.434 1.807 1.807 0 01-1.369.586zm1.434 2.9V38.25h-2.965V20.394h2.965zm11.701 18.149c-1.673 0-3.194-.38-4.562-1.14-1.347-.76-2.411-1.836-3.193-3.226-.761-1.412-1.141-3.041-1.141-4.887 0-1.825.391-3.432 1.173-4.823.804-1.412 1.89-2.487 3.259-3.226 1.368-.76 2.9-1.14 4.594-1.14 1.694 0 3.226.38 4.594 1.14 1.369.74 2.444 1.803 3.226 3.194.804 1.39 1.206 3.008 1.206 4.855 0 1.846-.413 3.475-1.239 4.887a8.378 8.378 0 01-3.291 3.226c-1.39.76-2.932 1.14-4.626 1.14zm0-2.606a6.26 6.26 0 002.997-.75c.934-.5 1.684-1.249 2.249-2.248.586-1 .879-2.216.879-3.65 0-1.433-.282-2.65-.847-3.649-.565-.999-1.303-1.738-2.216-2.215-.912-.5-1.9-.75-2.965-.75-1.086 0-2.085.25-2.997.75-.891.477-1.608 1.216-2.151 2.215-.543 1-.814 2.216-.814 3.65 0 1.455.26 2.682.782 3.681.543 1 1.259 1.75 2.15 2.249a6.105 6.105 0 002.933.717zm20.613-15.868c2.173 0 3.932.662 5.279 1.987 1.347 1.303 2.02 3.193 2.02 5.67V38.25h-2.932v-10.1c0-1.782-.446-3.14-1.336-4.074-.891-.956-2.107-1.433-3.65-1.433-1.564 0-2.813.488-3.747 1.466-.912.977-1.368 2.4-1.368 4.268v9.873h-2.965V20.394h2.965v2.542a5.908 5.908 0 012.378-2.118c1.021-.5 2.14-.75 3.356-.75zm18.203 18.409c-1.499 0-2.846-.26-4.04-.782-1.173-.543-2.096-1.282-2.77-2.215-.673-.956-1.021-2.053-1.043-3.291h3.161a4.263 4.263 0 001.303 2.704c.782.717 1.912 1.075 3.389 1.075 1.412 0 2.52-.347 3.324-1.042.825-.717 1.238-1.63 1.238-2.737 0-.87-.239-1.575-.717-2.118a4.578 4.578 0 00-1.792-1.238c-.717-.283-1.684-.587-2.9-.913-1.499-.39-2.704-.782-3.617-1.173-.89-.39-1.662-1-2.313-1.825-.63-.847-.945-1.976-.945-3.388 0-1.238.315-2.335.945-3.291.63-.956 1.509-1.695 2.639-2.216 1.151-.521 2.465-.782 3.943-.782 2.128 0 3.866.532 5.213 1.597 1.368 1.064 2.14 2.476 2.313 4.236h-3.258c-.109-.87-.565-1.63-1.368-2.281-.804-.674-1.869-1.01-3.194-1.01-1.238 0-2.248.325-3.03.977-.782.63-1.173 1.52-1.173 2.672 0 .825.228 1.499.684 2.02a4.866 4.866 0 001.727 1.206c.695.26 1.662.565 2.9.912 1.499.413 2.705.826 3.617 1.238.912.391 1.694 1.01 2.346 1.858.652.825.977 1.954.977 3.388 0 1.108-.293 2.15-.879 3.128-.587.978-1.456 1.77-2.607 2.379-1.151.608-2.509.912-4.073.912zm14.399-15.64v10.524c0 .87.185 1.488.554 1.858.369.347 1.01.521 1.922.521h2.184v2.51h-2.672c-1.651 0-2.889-.381-3.715-1.141-.825-.76-1.238-2.01-1.238-3.748V22.838h-2.313v-2.444h2.313v-4.496h2.965v4.496h4.66v2.444h-4.66zm10.077.456a5.72 5.72 0 012.215-2.378c.978-.565 2.162-.848 3.552-.848v3.063h-.782c-3.323 0-4.985 1.803-4.985 5.41v9.71h-2.965V20.393h2.965v2.9zm15.837 15.249c-1.673 0-3.193-.38-4.562-1.14-1.347-.76-2.411-1.836-3.193-3.226-.76-1.412-1.14-3.041-1.14-4.887 0-1.825.391-3.432 1.173-4.823.803-1.412 1.889-2.487 3.258-3.226 1.368-.76 2.9-1.14 4.594-1.14 1.695 0 3.226.38 4.594 1.14 1.369.74 2.444 1.803 3.226 3.194.804 1.39 1.206 3.008 1.206 4.855 0 1.846-.413 3.475-1.238 4.887a8.391 8.391 0 01-3.291 3.226c-1.391.76-2.933 1.14-4.627 1.14zm0-2.606c1.064 0 2.063-.25 2.998-.75.934-.5 1.683-1.249 2.248-2.248.586-1 .88-2.216.88-3.65 0-1.433-.283-2.65-.848-3.649-.564-.999-1.303-1.738-2.215-2.215a6.077 6.077 0 00-2.965-.75c-1.087 0-2.086.25-2.998.75-.891.477-1.608 1.216-2.151 2.215-.543 1-.814 2.216-.814 3.65 0 1.455.261 2.682.782 3.681.543 1 1.26 1.75 2.15 2.249a6.105 6.105 0 002.933.717zm20.614-15.868c2.172 0 3.931.662 5.278 1.987 1.347 1.303 2.02 3.193 2.02 5.67V38.25h-2.932v-10.1c0-1.782-.445-3.14-1.336-4.074-.891-.956-2.107-1.433-3.649-1.433-1.564 0-2.813.488-3.747 1.466-.913.977-1.369 2.4-1.369 4.268v9.873h-2.965V20.394h2.965v2.542a5.905 5.905 0 012.379-2.118c1.021-.5 2.139-.75 3.356-.75zm18.365.032c1.543 0 2.889.337 4.041 1.01 1.173.674 2.041 1.52 2.606 2.542v-3.259h2.998v18.247c0 1.63-.348 3.074-1.043 4.334a7.377 7.377 0 01-2.997 2.997c-1.282.717-2.781 1.076-4.497 1.076-2.346 0-4.301-.554-5.865-1.662-1.564-1.108-2.487-2.618-2.769-4.53h2.932c.326 1.087.999 1.956 2.02 2.607 1.021.674 2.248 1.01 3.682 1.01 1.629 0 2.954-.51 3.975-1.53 1.043-1.022 1.564-2.456 1.564-4.302v-3.747c-.586 1.043-1.455 1.912-2.606 2.607-1.152.695-2.498 1.042-4.041 1.042-1.585 0-3.03-.39-4.333-1.173-1.282-.782-2.292-1.879-3.031-3.29-.738-1.413-1.107-3.02-1.107-4.823 0-1.825.369-3.421 1.107-4.79.739-1.39 1.749-2.465 3.031-3.226 1.303-.76 2.748-1.14 4.333-1.14zm6.647 9.189c0-1.347-.271-2.52-.814-3.52-.543-.999-1.282-1.759-2.216-2.28-.912-.543-1.922-.815-3.03-.815-1.108 0-2.118.26-3.03.782-.913.521-1.641 1.282-2.184 2.281-.543 1-.814 2.172-.814 3.519 0 1.368.271 2.563.814 3.584.543 1 1.271 1.77 2.184 2.314.912.521 1.922.782 3.03.782 1.108 0 2.118-.261 3.03-.782.934-.543 1.673-1.315 2.216-2.314.543-1.02.814-2.205.814-3.551z" fill="#5F6062"/><path d="M30.307 8.458L22.571.542a1.787 1.787 0 00-2.564 0L3.164 17.765c-4.215 4.31-4.215 11.297 0 15.603a10.81 10.81 0 003.159 2.233l23.976-24.517s.004 0 .008-.004a1.885 1.885 0 000-2.622z" fill="#00ABDF"/><path d="M22.396 50.453L39.24 33.23c4.215-4.31 4.215-11.301 0-15.607a10.77 10.77 0 00-3.159-2.229L12.104 39.916s-.004 0-.009.01a1.886 1.886 0 000 2.621l7.737 7.912a1.787 1.787 0 002.564 0v-.005z" fill="#0079C1"/><path d="M23.93 17.596L6.333 35.59a10.606 10.606 0 0012.153-2.205l17.6-17.991A10.606 10.606 0 0023.93 17.6v-.005z" fill="#00447C"/><path d="M6.896 16.771c-1.003 0-1.983.078-2.954.197l-.778.796c-4.215 4.31-4.215 11.298 0 15.603.94.961 2.013 1.698 3.159 2.233l14.26-14.587a24.133 24.133 0 00-13.687-4.246v.005z" fill="#54BCEB"/><path d="M12.104 39.915s-.004 0-.009.01a1.886 1.886 0 000 2.621l7.737 7.912a1.787 1.787 0 002.564 0l9.093-9.298c-.188-5.797-2.264-11.11-5.66-15.278L12.103 39.915z" fill="#0093D0"/><path d="M6.332 35.592a10.606 10.606 0 0012.153-2.206l7.357-7.522a24.99 24.99 0 00-5.263-4.846L6.332 35.588v.004z" fill="#174A7C"/><path d="M0 25.996c.098 2.682 1.137 5.33 3.141 7.376a10.78 10.78 0 003.16 2.233l9.289-9.503a22.024 22.024 0 00-7.938-1.492c-2.801 0-5.263.508-7.652 1.386z" fill="#72CDF4"/><path d="M21.94 29.84l-9.854 10.076s-.004 0-.009.009a1.886 1.886 0 000 2.622l7.737 7.91a1.787 1.787 0 002.564 0l7.37-7.535a23.19 23.19 0 00-7.808-13.077v-.005z" fill="#009DDC"/><path d="M6.314 35.592a10.606 10.606 0 0012.153-2.206l3.486-3.564a22.441 22.441 0 00-6.359-3.72l-9.28 9.49z" fill="#005581"/><path d="M30.317 11.085s.004 0 .008-.005c.336-.348.502-.791.515-1.244L5.871 35.363c.152.083.304.17.465.243l23.98-24.521z" fill="#0096D6"/><path d="M36.505 15.619c-.144-.073-.282-.156-.43-.224l-23.98 24.52s-.004 0-.009.01a1.844 1.844 0 00-.519 1.194l24.938-25.496v-.004z" fill="#00ABDF"/></svg>