<svg width="198" height="64" fill="none" xmlns="http://www.w3.org/2000/svg"><g clip-path="url(#clip0_3_53)"><path d="M19.59 14.96A14.068 14.068 0 018.7 1.286H.75a21.97 21.97 0 009.397 18.017A21.976 21.976 0 00.734 37.32H8.7a14.057 14.057 0 0110.89-13.675V14.96z" fill="#FF5510"/><path d="M147.012 38.667a14.187 14.187 0 01-10.01-4.152 14.172 14.172 0 01-4.153-10.005V14.157a14.15 14.15 0 014.148-10.01 14.165 14.165 0 0124.178 10.01V24.51a14.165 14.165 0 01-14.163 14.157zm0-30.724a6.23 6.23 0 00-6.217 6.214V24.51a6.223 6.223 0 0010.562 4.296 6.214 6.214 0 001.875-4.296V14.157a6.224 6.224 0 00-6.22-6.218m-30.631-6.73v14.119h-12.436V1.209h-7.95v36.176h7.95v-14.11h12.436v14.11h7.947V1.21h-7.947zM86.842 13.996a14.15 14.15 0 00-4.149-10.01 14.166 14.166 0 00-24.177 10.01v23.39h7.95v-10.68h12.437v10.68h7.946v-23.39h-.007zm-7.94 4.752H66.467v-4.591a6.216 6.216 0 016.218-6.372 6.223 6.223 0 015.79 3.945c.304.772.45 1.598.429 2.427v4.591zm118.775-4.752c0-3.755-1.492-7.355-4.148-10.01a14.167 14.167 0 00-20.03 0 14.154 14.154 0 00-4.148 10.01v23.39h7.947v-10.68h12.44v10.68h7.947v-23.39h-.008zm-7.939 4.752h-12.44v-4.591a6.217 6.217 0 016.22-6.218 6.22 6.22 0 016.22 6.218v4.591zm-147.578.555a21.979 21.979 0 009.412-18.017h-7.947a14.05 14.05 0 01-3.926 9.719 14.062 14.062 0 01-9.563 4.3V1.247h-7.95v36.138h7.95V23.301a14.062 14.062 0 019.563 4.3 14.05 14.05 0 013.926 9.72h7.947a21.966 21.966 0 00-9.413-18.018z" fill="#fff"/></g><path d="M68.418 61.09h-5.165l-.767 2.342h-5.1l5.67-15.5h5.603l5.647 15.5h-5.122l-.766-2.342zm-1.182-3.657l-1.4-4.313-1.401 4.314h2.801zm7.736-1.773c0-1.532.306-2.897.92-4.094a6.72 6.72 0 012.67-2.78c1.152-.672 2.51-1.008 4.07-1.008 1.343 0 2.54.256 3.59.767a6.465 6.465 0 012.583 2.123c.671.92 1.116 1.993 1.335 3.219h-5.122a2.675 2.675 0 00-1.007-1.183 2.519 2.519 0 00-1.466-.437c-.817 0-1.466.306-1.948.92-.467.612-.7 1.437-.7 2.473 0 1.036.233 1.861.7 2.474.482.613 1.13.92 1.948.92.555 0 1.043-.139 1.466-.416a2.818 2.818 0 001.007-1.204h5.122c-.219 1.226-.664 2.298-1.335 3.218-.657.92-1.518 1.635-2.583 2.145-1.05.497-2.247.745-3.59.745-1.56 0-2.918-.328-4.07-.985a6.864 6.864 0 01-2.67-2.803c-.614-1.197-.92-2.561-.92-4.094zm29.087-7.728v3.853h-4.115v11.647h-4.859V51.785h-4.071v-3.853h13.045zm6.177 0v15.5h-4.859v-15.5h4.859zm17.8 0l-5.209 15.5h-6.282l-5.209-15.5h5.166l3.195 10.662 3.174-10.662h5.165zm5.947 3.875v1.904h4.815v3.657h-4.815v2.19h5.472v3.874h-10.331v-15.5h10.331v3.875h-5.472z" fill="#00A7E1"/><defs><clipPath id="clip0_3_53"><path fill="#fff" transform="translate(.434)" d="M0 0h197.566v38.667H0z"/></clipPath></defs></svg>