<svg width="196" height="24" viewBox="0 0 196 24" fill="none" xmlns="http://www.w3.org/2000/svg">
<g clip-path="url(#clip0_17_1075)">
<path d="M11.8505 9.25483C9.93735 8.81147 8.23044 7.73431 7.00731 6.19845C5.78417 4.66258 5.11674 2.75834 5.11351 0.795288H0.195111C0.195165 2.98366 0.723701 5.13968 1.73582 7.08017C2.74793 9.02066 4.21371 10.6883 6.00862 11.9413C4.21182 13.1932 2.74409 14.8603 1.73027 16.8009C0.716461 18.7415 0.186558 20.8981 0.185638 23.0874H5.11351C5.11674 21.1243 5.78417 19.2201 7.00731 17.6842C8.23044 16.1484 9.93735 15.0712 11.8505 14.6278V9.25483Z" fill="#FF5510"/>
<path d="M90.6775 23.9206C88.3547 23.9174 86.1279 22.9937 84.4855 21.352C82.843 19.7103 81.9189 17.4845 81.9158 15.1628V8.75778C81.9158 6.43507 82.8389 4.20749 84.482 2.56509C86.1252 0.922691 88.3537 0 90.6775 0C93.0012 0 95.2298 0.922691 96.8729 2.56509C98.5161 4.20749 99.4392 6.43507 99.4392 8.75778V15.1628C99.4392 17.4855 98.5161 19.7131 96.8729 21.3555C95.2298 22.9979 93.0012 23.9206 90.6775 23.9206V23.9206ZM90.6775 4.91382C89.6581 4.9157 88.681 5.32129 87.9602 6.04176C87.2394 6.76224 86.8337 7.73887 86.8318 8.75778V15.1628C86.8567 16.1661 87.2729 17.1199 87.9916 17.8207C88.7104 18.5214 89.6746 18.9137 90.6787 18.9137C91.6827 18.9137 92.647 18.5214 93.3657 17.8207C94.0844 17.1199 94.5006 16.1661 94.5255 15.1628V8.75778C94.5243 7.73805 94.1184 6.76045 93.3971 6.0394C92.6757 5.31835 91.6977 4.91271 90.6775 4.91146" fill="white"/>
<path d="M71.7285 0.747986V9.48209H64.0348V0.747986H59.1164V23.1277H64.0348V14.3983H71.7285V23.1277H76.6445V0.747986H71.7285Z" fill="white"/>
<path d="M53.4544 8.65835C53.4544 6.33564 52.5313 4.10807 50.8882 2.46567C49.2451 0.823265 47.0165 -0.0994263 44.6927 -0.0994263C42.369 -0.0994263 40.1404 0.823265 38.4973 2.46567C36.8541 4.10807 35.931 6.33564 35.931 8.65835V8.65835V23.1276H40.8494V16.5214H48.5432V23.1276H53.4592V8.65835H53.4544ZM48.5432 11.5981H40.8494V8.75776C40.8367 8.24478 40.9268 7.73444 41.1144 7.2568C41.302 6.77915 41.5833 6.34385 41.9418 5.97654C42.3002 5.60922 42.7286 5.31732 43.2017 5.11801C43.6747 4.91871 44.1829 4.81603 44.6963 4.81603C45.2097 4.81603 45.7178 4.91871 46.1909 5.11801C46.664 5.31732 47.0923 5.60922 47.4508 5.97654C47.8093 6.34385 48.0906 6.77915 48.2782 7.2568C48.4658 7.73444 48.5559 8.24478 48.5432 8.75776V11.5981Z" fill="white"/>
<path d="M122.021 8.65835C122.021 6.33564 121.098 4.10807 119.454 2.46567C117.811 0.823265 115.583 -0.0994263 113.259 -0.0994263C110.935 -0.0994263 108.707 0.823265 107.064 2.46567C105.42 4.10807 104.497 6.33564 104.497 8.65835V8.65835V23.1276H109.413V16.5214H117.109V23.1276H122.025V8.65835H122.021ZM117.109 11.5981H109.413V8.75776C109.413 7.73765 109.819 6.75933 110.54 6.038C111.262 5.31668 112.241 4.91144 113.261 4.91144C114.282 4.91144 115.261 5.31668 115.982 6.038C116.704 6.75933 117.109 7.73765 117.109 8.75776V11.5981Z" fill="white"/>
<path d="M25.8124 11.9413C27.6091 10.6893 29.0767 9.02216 30.0905 7.0816C31.1043 5.14104 31.6343 2.98448 31.6354 0.795276H26.7194C26.7157 3.03753 25.8455 5.19166 24.2905 6.80775C22.7354 8.42383 20.6159 9.37688 18.3745 9.46784V0.771606H13.4561V23.1276H18.3745V14.4148C20.6159 14.5058 22.7354 15.4588 24.2905 17.0749C25.8455 18.691 26.7157 20.8451 26.7194 23.0874H31.6354C31.6345 20.8981 31.1046 18.7415 30.0908 16.8009C29.077 14.8603 27.6092 13.1932 25.8124 11.9413Z" fill="white"/>
</g>
<path d="M140.603 21.9564H136.574L135.977 23.7397H132L136.421 11.9397H140.79L145.194 23.7397H141.2L140.603 21.9564ZM139.681 19.1731L138.589 15.8897L137.496 19.1731H139.681Z" fill="#00A7E1"/>
<path d="M145.714 17.8231C145.714 16.6564 145.953 15.6175 146.431 14.7064C146.92 13.7953 147.614 13.0897 148.513 12.5897C149.412 12.0786 150.47 11.8231 151.688 11.8231C152.735 11.8231 153.668 12.0175 154.487 12.4064C155.318 12.7842 155.989 13.3231 156.501 14.0231C157.025 14.7231 157.372 15.5397 157.542 16.4731H153.548C153.366 16.0842 153.104 15.7842 152.763 15.5731C152.433 15.3508 152.052 15.2397 151.619 15.2397C150.982 15.2397 150.476 15.4731 150.1 15.9397C149.736 16.4064 149.554 17.0342 149.554 17.8231C149.554 18.6119 149.736 19.2397 150.1 19.7064C150.476 20.1731 150.982 20.4064 151.619 20.4064C152.052 20.4064 152.433 20.3008 152.763 20.0897C153.104 19.8675 153.366 19.5619 153.548 19.1731H157.542C157.372 20.1064 157.025 20.9231 156.501 21.6231C155.989 22.3231 155.318 22.8675 154.487 23.2564C153.668 23.6342 152.735 23.8231 151.688 23.8231C150.47 23.8231 149.412 23.5731 148.513 23.0731C147.614 22.5619 146.92 21.8508 146.431 20.9397C145.953 20.0286 145.714 18.9897 145.714 17.8231Z" fill="#00A7E1"/>
<path d="M168.397 11.9397V14.8731H165.188V23.7397H161.399V14.8731H158.224V11.9397H168.397Z" fill="#00A7E1"/>
<path d="M173.214 11.9397V23.7397H169.425V11.9397H173.214Z" fill="#00A7E1"/>
<path d="M187.095 11.9397L183.033 23.7397H178.134L174.072 11.9397H178.1L180.592 20.0564L183.067 11.9397H187.095Z" fill="#00A7E1"/>
<path d="M191.733 14.8897V16.3397H195.488V19.1231H191.733V20.7897H196V23.7397H187.944V11.9397H196V14.8897H191.733Z" fill="#00A7E1"/>
<defs>
<clipPath id="clip0_17_1075">
<rect width="122.221" height="23.9206" fill="white"/>
</clipPath>
</defs>
</svg>
