<svg width="191" height="36" viewBox="0 0 191 36" fill="none" xmlns="http://www.w3.org/2000/svg">
<path d="M41.854 27.1611C40.796 27.1611 39.8454 26.9771 39.002 26.6091C38.174 26.2257 37.5224 25.7044 37.047 25.0451C36.5717 24.3704 36.3264 23.5961 36.311 22.7221H38.542C38.6187 23.4734 38.9254 24.1097 39.462 24.6311C40.014 25.1371 40.8114 25.3901 41.854 25.3901C42.8507 25.3901 43.6327 25.1447 44.2 24.6541C44.7827 24.1481 45.074 23.5041 45.074 22.7221C45.074 22.1087 44.9054 21.6104 44.568 21.2271C44.2307 20.8437 43.809 20.5524 43.303 20.3531C42.797 20.1537 42.1147 19.9391 41.256 19.7091C40.198 19.4331 39.347 19.1571 38.703 18.8811C38.0744 18.6051 37.53 18.1757 37.07 17.5931C36.6254 16.9951 36.403 16.1977 36.403 15.2011C36.403 14.3271 36.6254 13.5527 37.07 12.8781C37.5147 12.2034 38.1357 11.6821 38.933 11.3141C39.7457 10.9461 40.6734 10.7621 41.716 10.7621C43.2187 10.7621 44.4454 11.1377 45.396 11.8891C46.362 12.6404 46.9064 13.6371 47.029 14.8791H44.729C44.6524 14.2657 44.3304 13.7291 43.763 13.2691C43.1957 12.7937 42.4444 12.5561 41.509 12.5561C40.635 12.5561 39.922 12.7861 39.37 13.2461C38.818 13.6907 38.542 14.3194 38.542 15.1321C38.542 15.7147 38.703 16.1901 39.025 16.5581C39.3624 16.9261 39.7687 17.2097 40.244 17.4091C40.7347 17.5931 41.417 17.8077 42.291 18.0531C43.349 18.3444 44.2 18.6357 44.844 18.9271C45.488 19.2031 46.04 19.6401 46.5 20.2381C46.96 20.8207 47.19 21.6181 47.19 22.6301C47.19 23.4121 46.983 24.1481 46.569 24.8381C46.155 25.5281 45.5417 26.0877 44.729 26.5171C43.9164 26.9464 42.958 27.1611 41.854 27.1611Z" fill="#5F6062"/>
<path d="M54.9621 27.2071C53.7814 27.2071 52.7081 26.9387 51.7421 26.4021C50.7914 25.8654 50.0401 25.1064 49.4881 24.1251C48.9514 23.1284 48.6831 21.9784 48.6831 20.6751C48.6831 19.3871 48.9591 18.2524 49.5111 17.2711C50.0784 16.2744 50.8451 15.5154 51.8111 14.9941C52.7771 14.4574 53.8581 14.1891 55.0541 14.1891C56.2501 14.1891 57.3311 14.4574 58.2971 14.9941C59.2631 15.5154 60.0221 16.2667 60.5741 17.2481C61.1414 18.2294 61.4251 19.3717 61.4251 20.6751C61.4251 21.9784 61.1337 23.1284 60.5511 24.1251C59.9837 25.1064 59.2094 25.8654 58.2281 26.4021C57.2467 26.9387 56.1581 27.2071 54.9621 27.2071ZM54.9621 25.3671C55.7134 25.3671 56.4187 25.1907 57.0781 24.8381C57.7374 24.4854 58.2664 23.9564 58.6651 23.2511C59.0791 22.5457 59.2861 21.6871 59.2861 20.6751C59.2861 19.6631 59.0867 18.8044 58.6881 18.0991C58.2894 17.3937 57.7681 16.8724 57.1241 16.5351C56.4801 16.1824 55.7824 16.0061 55.0311 16.0061C54.2644 16.0061 53.5591 16.1824 52.9151 16.5351C52.2864 16.8724 51.7804 17.3937 51.3971 18.0991C51.0137 18.8044 50.8221 19.6631 50.8221 20.6751C50.8221 21.7024 51.0061 22.5687 51.3741 23.2741C51.7574 23.9794 52.2634 24.5084 52.8921 24.8611C53.5207 25.1984 54.2107 25.3671 54.9621 25.3671Z" fill="#5F6062"/>
<path d="M65.465 9.98007V27.0001H63.372V9.98007H65.465Z" fill="#5F6062"/>
<path d="M79.4051 14.3961V27.0001H77.3121V25.1371C76.9135 25.7811 76.3538 26.2871 75.6331 26.6551C74.9278 27.0077 74.1458 27.1841 73.2871 27.1841C72.3058 27.1841 71.4241 26.9847 70.6421 26.5861C69.8601 26.1721 69.2391 25.5587 68.7791 24.7461C68.3345 23.9334 68.1121 22.9444 68.1121 21.7791V14.3961H70.1821V21.5031C70.1821 22.7451 70.4965 23.7034 71.1251 24.3781C71.7538 25.0374 72.6125 25.3671 73.7011 25.3671C74.8205 25.3671 75.7021 25.0221 76.3461 24.3321C76.9901 23.6421 77.3121 22.6377 77.3121 21.3191V14.3961H79.4051Z" fill="#5F6062"/>
<path d="M84.687 16.1211V23.5501C84.687 24.1634 84.8174 24.6004 85.078 24.8611C85.3387 25.1064 85.791 25.2291 86.435 25.2291H87.976V27.0001H86.09C84.9247 27.0001 84.0507 26.7317 83.468 26.1951C82.8854 25.6584 82.594 24.7767 82.594 23.5501V16.1211H80.961V14.3961H82.594V11.2221H84.687V14.3961H87.976V16.1211H84.687Z" fill="#5F6062"/>
<path d="M90.788 12.3491C90.3893 12.3491 90.052 12.2111 89.776 11.9351C89.5 11.6591 89.362 11.3217 89.362 10.9231C89.362 10.5244 89.5 10.1871 89.776 9.91107C90.052 9.63507 90.3893 9.49707 90.788 9.49707C91.1713 9.49707 91.4933 9.63507 91.754 9.91107C92.03 10.1871 92.168 10.5244 92.168 10.9231C92.168 11.3217 92.03 11.6591 91.754 11.9351C91.4933 12.2111 91.1713 12.3491 90.788 12.3491ZM91.8 14.3961V27.0001H89.707V14.3961H91.8Z" fill="#5F6062"/>
<path d="M100.059 27.2071C98.8785 27.2071 97.8051 26.9387 96.8391 26.4021C95.8885 25.8654 95.1371 25.1064 94.5851 24.1251C94.0485 23.1284 93.7801 21.9784 93.7801 20.6751C93.7801 19.3871 94.0561 18.2524 94.6081 17.2711C95.1755 16.2744 95.9421 15.5154 96.9081 14.9941C97.8741 14.4574 98.9551 14.1891 100.151 14.1891C101.347 14.1891 102.428 14.4574 103.394 14.9941C104.36 15.5154 105.119 16.2667 105.671 17.2481C106.238 18.2294 106.522 19.3717 106.522 20.6751C106.522 21.9784 106.231 23.1284 105.648 24.1251C105.081 25.1064 104.306 25.8654 103.325 26.4021C102.344 26.9387 101.255 27.2071 100.059 27.2071ZM100.059 25.3671C100.81 25.3671 101.516 25.1907 102.175 24.8381C102.834 24.4854 103.363 23.9564 103.762 23.2511C104.176 22.5457 104.383 21.6871 104.383 20.6751C104.383 19.6631 104.184 18.8044 103.785 18.0991C103.386 17.3937 102.865 16.8724 102.221 16.5351C101.577 16.1824 100.879 16.0061 100.128 16.0061C99.3615 16.0061 98.6561 16.1824 98.0121 16.5351C97.3835 16.8724 96.8775 17.3937 96.4941 18.0991C96.1108 18.8044 95.9191 19.6631 95.9191 20.6751C95.9191 21.7024 96.1031 22.5687 96.4711 23.2741C96.8545 23.9794 97.3605 24.5084 97.9891 24.8611C98.6178 25.1984 99.3078 25.3671 100.059 25.3671Z" fill="#5F6062"/>
<path d="M114.61 14.1661C116.143 14.1661 117.385 14.6337 118.336 15.5691C119.287 16.4891 119.762 17.8231 119.762 19.5711V27.0001H117.692V19.8701C117.692 18.6127 117.378 17.6544 116.749 16.9951C116.12 16.3204 115.262 15.9831 114.173 15.9831C113.069 15.9831 112.187 16.3281 111.528 17.0181C110.884 17.7081 110.562 18.7124 110.562 20.0311V27.0001H108.469V14.3961H110.562V16.1901C110.976 15.5461 111.536 15.0477 112.241 14.6951C112.962 14.3424 113.751 14.1661 114.61 14.1661Z" fill="#5F6062"/>
<path d="M127.459 27.1611C126.401 27.1611 125.45 26.9771 124.607 26.6091C123.779 26.2257 123.127 25.7044 122.652 25.0451C122.177 24.3704 121.931 23.5961 121.916 22.7221H124.147C124.224 23.4734 124.53 24.1097 125.067 24.6311C125.619 25.1371 126.416 25.3901 127.459 25.3901C128.456 25.3901 129.238 25.1447 129.805 24.6541C130.388 24.1481 130.679 23.5041 130.679 22.7221C130.679 22.1087 130.51 21.6104 130.173 21.2271C129.836 20.8437 129.414 20.5524 128.908 20.3531C128.402 20.1537 127.72 19.9391 126.861 19.7091C125.803 19.4331 124.952 19.1571 124.308 18.8811C123.679 18.6051 123.135 18.1757 122.675 17.5931C122.23 16.9951 122.008 16.1977 122.008 15.2011C122.008 14.3271 122.23 13.5527 122.675 12.8781C123.12 12.2034 123.741 11.6821 124.538 11.3141C125.351 10.9461 126.278 10.7621 127.321 10.7621C128.824 10.7621 130.05 11.1377 131.001 11.8891C131.967 12.6404 132.511 13.6371 132.634 14.8791H130.334C130.257 14.2657 129.935 13.7291 129.368 13.2691C128.801 12.7937 128.049 12.5561 127.114 12.5561C126.24 12.5561 125.527 12.7861 124.975 13.2461C124.423 13.6907 124.147 14.3194 124.147 15.1321C124.147 15.7147 124.308 16.1901 124.63 16.5581C124.967 16.9261 125.374 17.2097 125.849 17.4091C126.34 17.5931 127.022 17.8077 127.896 18.0531C128.954 18.3444 129.805 18.6357 130.449 18.9271C131.093 19.2031 131.645 19.6401 132.105 20.2381C132.565 20.8207 132.795 21.6181 132.795 22.6301C132.795 23.4121 132.588 24.1481 132.174 24.8381C131.76 25.5281 131.147 26.0877 130.334 26.5171C129.521 26.9464 128.563 27.1611 127.459 27.1611Z" fill="#5F6062"/>
<path d="M137.623 16.1211V23.5501C137.623 24.1634 137.753 24.6004 138.014 24.8611C138.275 25.1064 138.727 25.2291 139.371 25.2291H140.912V27.0001H139.026C137.861 27.0001 136.987 26.7317 136.404 26.1951C135.821 25.6584 135.53 24.7767 135.53 23.5501V16.1211H133.897V14.3961H135.53V11.2221H137.623V14.3961H140.912V16.1211H137.623Z" fill="#5F6062"/>
<path d="M144.736 16.4431C145.104 15.7224 145.625 15.1627 146.3 14.7641C146.99 14.3654 147.826 14.1661 148.807 14.1661V16.3281H148.255C145.909 16.3281 144.736 17.6007 144.736 20.1461V27.0001H142.643V14.3961H144.736V16.4431Z" fill="#5F6062"/>
<path d="M155.915 27.2071C154.734 27.2071 153.661 26.9387 152.695 26.4021C151.744 25.8654 150.993 25.1064 150.441 24.1251C149.904 23.1284 149.636 21.9784 149.636 20.6751C149.636 19.3871 149.912 18.2524 150.464 17.2711C151.031 16.2744 151.798 15.5154 152.764 14.9941C153.73 14.4574 154.811 14.1891 156.007 14.1891C157.203 14.1891 158.284 14.4574 159.25 14.9941C160.216 15.5154 160.975 16.2667 161.527 17.2481C162.094 18.2294 162.378 19.3717 162.378 20.6751C162.378 21.9784 162.087 23.1284 161.504 24.1251C160.937 25.1064 160.162 25.8654 159.181 26.4021C158.2 26.9387 157.111 27.2071 155.915 27.2071ZM155.915 25.3671C156.666 25.3671 157.372 25.1907 158.031 24.8381C158.69 24.4854 159.219 23.9564 159.618 23.2511C160.032 22.5457 160.239 21.6871 160.239 20.6751C160.239 19.6631 160.04 18.8044 159.641 18.0991C159.242 17.3937 158.721 16.8724 158.077 16.5351C157.433 16.1824 156.735 16.0061 155.984 16.0061C155.217 16.0061 154.512 16.1824 153.868 16.5351C153.239 16.8724 152.733 17.3937 152.35 18.0991C151.967 18.8044 151.775 19.6631 151.775 20.6751C151.775 21.7024 151.959 22.5687 152.327 23.2741C152.71 23.9794 153.216 24.5084 153.845 24.8611C154.474 25.1984 155.164 25.3671 155.915 25.3671Z" fill="#5F6062"/>
<path d="M170.466 14.1661C171.999 14.1661 173.241 14.6337 174.192 15.5691C175.143 16.4891 175.618 17.8231 175.618 19.5711V27.0001H173.548V19.8701C173.548 18.6127 173.234 17.6544 172.605 16.9951C171.976 16.3204 171.118 15.9831 170.029 15.9831C168.925 15.9831 168.043 16.3281 167.384 17.0181C166.74 17.7081 166.418 18.7124 166.418 20.0311V27.0001H164.325V14.3961H166.418V16.1901C166.832 15.5461 167.392 15.0477 168.097 14.6951C168.818 14.3424 169.607 14.1661 170.466 14.1661Z" fill="#5F6062"/>
<path d="M183.43 14.1891C184.518 14.1891 185.469 14.4267 186.282 14.9021C187.11 15.3774 187.723 15.9754 188.122 16.6961V14.3961H190.238V27.2761C190.238 28.4261 189.992 29.4457 189.502 30.3351C189.011 31.2397 188.306 31.9451 187.386 32.4511C186.481 32.9571 185.423 33.2101 184.212 33.2101C182.556 33.2101 181.176 32.8191 180.072 32.0371C178.968 31.2551 178.316 30.1894 178.117 28.8401H180.187C180.417 29.6067 180.892 30.2201 181.613 30.6801C182.333 31.1554 183.2 31.3931 184.212 31.3931C185.362 31.3931 186.297 31.0327 187.018 30.3121C187.754 29.5914 188.122 28.5794 188.122 27.2761V24.6311C187.708 25.3671 187.094 25.9804 186.282 26.4711C185.469 26.9617 184.518 27.2071 183.43 27.2071C182.31 27.2071 181.291 26.9311 180.371 26.3791C179.466 25.8271 178.753 25.0527 178.232 24.0561C177.71 23.0594 177.45 21.9247 177.45 20.6521C177.45 19.3641 177.71 18.2371 178.232 17.2711C178.753 16.2897 179.466 15.5307 180.371 14.9941C181.291 14.4574 182.31 14.1891 183.43 14.1891ZM188.122 20.6751C188.122 19.7244 187.93 18.8964 187.547 18.1911C187.163 17.4857 186.642 16.9491 185.983 16.5811C185.339 16.1977 184.626 16.0061 183.844 16.0061C183.062 16.0061 182.349 16.1901 181.705 16.5581C181.061 16.9261 180.547 17.4627 180.164 18.1681C179.78 18.8734 179.589 19.7014 179.589 20.6521C179.589 21.6181 179.78 22.4614 180.164 23.1821C180.547 23.8874 181.061 24.4317 181.705 24.8151C182.349 25.1831 183.062 25.3671 183.844 25.3671C184.626 25.3671 185.339 25.1831 185.983 24.8151C186.642 24.4317 187.163 23.8874 187.547 23.1821C187.93 22.4614 188.122 21.6257 188.122 20.6751Z" fill="#5F6062"/>
<path d="M21.3934 5.97039L15.9322 0.382738C15.4331 -0.127579 14.6214 -0.127579 14.1223 0.382738C14.1223 0.382738 5.20552 9.50062 2.23327 12.5399C-0.742145 15.5824 -0.742145 20.5144 2.23327 23.5537C2.89658 24.232 3.65465 24.752 4.46327 25.1299L21.3871 7.82435C21.3871 7.82435 21.3903 7.82435 21.3934 7.82109C21.8925 7.30756 21.8925 6.48071 21.3934 5.97039Z" fill="#00ABDF"/>
<path d="M15.809 35.6138C15.809 35.6138 24.7258 26.4959 27.6981 23.4567C30.6735 20.4142 30.6735 15.4789 27.6981 12.4396C27.0347 11.7614 26.2767 11.2446 25.4681 10.8667L8.54421 28.1755C8.54421 28.1755 8.54106 28.1755 8.53788 28.1819C8.03881 28.6923 8.03881 29.5191 8.53788 30.0326L13.9991 35.6171C14.4982 36.1274 15.31 36.1274 15.809 35.6171V35.6138Z" fill="#0079C1"/>
<path d="M16.8923 12.4204L4.46948 25.1234C7.28382 26.4541 10.7267 25.9406 13.0483 23.5666L25.4711 10.8668C22.6568 9.5361 19.2139 10.0497 16.8923 12.4236V12.4204Z" fill="#00447C"/>
<path d="M4.86754 11.8387C4.16003 11.8387 3.46829 11.8936 2.78287 11.9776C2.58388 12.1811 2.39752 12.3716 2.23327 12.5396C-0.742145 15.5821 -0.742145 20.5141 2.23327 23.5534C2.89658 24.2316 3.65465 24.7516 4.46327 25.1295L14.5298 14.8328C11.766 12.9401 8.44312 11.8354 4.86754 11.8354V11.8387Z" fill="#54BCEB"/>
<path d="M8.54421 28.1755C8.54421 28.1755 8.54106 28.1755 8.53788 28.182C8.03881 28.6923 8.03881 29.5191 8.53788 30.0327L13.9991 35.6171C14.4982 36.1274 15.31 36.1274 15.809 35.6171C15.809 35.6171 19.0182 32.3356 22.2273 29.054C22.0947 24.9618 20.6291 21.2119 18.2317 18.2695L8.54421 28.1755Z" fill="#0093D0"/>
<path d="M4.46948 25.1235C7.28382 26.4542 10.7267 25.9407 13.0483 23.5667L18.241 18.2569C17.1703 16.9423 15.9195 15.7893 14.5265 14.8364L4.46948 25.1203V25.1235Z" fill="#174A7C"/>
<path d="M0 18.3502C0.0694895 20.2429 0.802289 22.113 2.21735 23.5568C2.88066 24.2351 3.63873 24.7551 4.44735 25.1329L11.0046 18.4245C9.25793 17.7527 7.37854 17.3716 5.40126 17.3716C3.42394 17.3716 1.6867 17.7301 0 18.3502Z" fill="#72CDF4"/>
<path d="M15.4868 21.0635L8.53148 28.1756C8.53148 28.1756 8.52834 28.1756 8.52515 28.1821C8.02612 28.6924 8.02612 29.5192 8.52515 30.0328L13.9864 35.6172C14.4855 36.1275 15.2972 36.1275 15.7963 35.6172C15.7963 35.6172 18.2442 33.1141 20.9985 30.2976C20.231 26.6027 18.2442 23.3728 15.4868 21.0667V21.0635Z" fill="#009DDC"/>
<path d="M4.45679 25.1235C7.27112 26.4542 10.714 25.9407 13.0356 23.5667L15.4962 21.0507C14.1632 19.9364 12.6471 19.0546 11.0078 18.4248L4.45679 25.1235Z" fill="#005581"/>
<path d="M21.3998 7.82463C21.3998 7.82463 21.403 7.82463 21.4061 7.82138C21.643 7.57592 21.7599 7.26261 21.7694 6.94287L4.14429 24.9622C4.25167 25.0204 4.35909 25.0817 4.4728 25.1334L21.3998 7.82463Z" fill="#0096D6"/>
<path d="M25.768 11.0249C25.6669 10.9733 25.569 10.9151 25.4648 10.8667L8.53778 28.1755C8.53778 28.1755 8.53459 28.1755 8.53145 28.1819C8.30089 28.4145 8.18399 28.7181 8.16504 29.0249L25.768 11.0282V11.0249Z" fill="#00ABDF"/>
</svg>
