<svg width="270" height="51" viewBox="0 0 270 51" fill="none" xmlns="http://www.w3.org/2000/svg">
<path d="M59.2933 38.4781C57.7944 38.4781 56.4477 38.2175 55.2529 37.6961C54.0799 37.1531 53.1567 36.4145 52.4833 35.4805C51.81 34.5247 51.4624 33.4277 51.4407 32.1895H54.6013C54.7099 33.2539 55.1443 34.1554 55.9046 34.894C56.6866 35.6108 57.8162 35.9692 59.2933 35.9692C60.7052 35.9692 61.8131 35.6217 62.6168 34.9266C63.4422 34.2097 63.8549 33.2974 63.8549 32.1895C63.8549 31.3207 63.616 30.6147 63.1381 30.0716C62.6602 29.5286 62.0629 29.1158 61.346 28.8335C60.6292 28.5511 59.6625 28.247 58.4461 27.9211C56.9473 27.5301 55.7417 27.1391 54.8293 26.7481C53.9387 26.3571 53.1676 25.7489 52.5159 24.9235C51.886 24.0763 51.571 22.9467 51.571 21.5348C51.571 20.2966 51.886 19.1996 52.5159 18.2439C53.1459 17.2881 54.0256 16.5495 55.1552 16.0282C56.3065 15.5069 57.6207 15.2462 59.0978 15.2462C61.2266 15.2462 62.9643 15.7784 64.3111 16.8428C65.6796 17.9072 66.4508 19.3191 66.6245 21.0786H63.3662C63.2576 20.2097 62.8014 19.4494 61.9977 18.7978C61.194 18.1244 60.1296 17.7877 58.8045 17.7877C57.5663 17.7877 56.5563 18.1135 55.7743 18.7652C54.9923 19.3951 54.6013 20.2858 54.6013 21.437C54.6013 22.2625 54.8293 22.9359 55.2855 23.4572C55.7634 23.9785 56.339 24.3804 57.0124 24.6628C57.7075 24.9235 58.6742 25.2276 59.9124 25.5751C61.4112 25.9878 62.6168 26.4006 63.5291 26.8133C64.4414 27.2043 65.2234 27.8234 65.8751 28.6705C66.5268 29.496 66.8526 30.6255 66.8526 32.0592C66.8526 33.167 66.5594 34.2097 65.9729 35.1872C65.3864 36.1647 64.5175 36.9576 63.3662 37.5658C62.2149 38.174 60.8573 38.4781 59.2933 38.4781Z" fill="#5F6062"/>
<path d="M77.863 38.5433C76.1904 38.5433 74.6698 38.1632 73.3013 37.4029C71.9545 36.6426 70.8902 35.5674 70.1082 34.1771C69.3479 32.7652 68.9677 31.136 68.9677 29.2896C68.9677 27.465 69.3587 25.8575 70.1407 24.4673C70.9445 23.0553 72.0306 21.9801 73.3991 21.2415C74.7676 20.4813 76.299 20.1011 77.9933 20.1011C79.6877 20.1011 81.2191 20.4813 82.5876 21.2415C83.9561 21.9801 85.0313 23.0445 85.8133 24.4347C86.6171 25.8249 87.0189 27.4432 87.0189 29.2896C87.0189 31.136 86.6062 32.7652 85.7808 34.1771C84.977 35.5674 83.8801 36.6426 82.4898 37.4029C81.0996 38.1632 79.5573 38.5433 77.863 38.5433ZM77.863 35.9366C78.9274 35.9366 79.9266 35.6868 80.8607 35.1872C81.7947 34.6876 82.5441 33.9382 83.1089 32.939C83.6954 31.9397 83.9887 30.7233 83.9887 29.2896C83.9887 27.856 83.7063 26.6395 83.1415 25.6403C82.5767 24.6411 81.8382 23.9025 80.9258 23.4246C80.0135 22.925 79.0251 22.6752 77.9607 22.6752C76.8746 22.6752 75.8754 22.925 74.9631 23.4246C74.0725 23.9025 73.3556 24.6411 72.8126 25.6403C72.2695 26.6395 71.998 27.856 71.998 29.2896C71.998 30.745 72.2587 31.9723 72.78 32.9715C73.323 33.9708 74.0399 34.7202 74.9305 35.2198C75.8211 35.6977 76.7986 35.9366 77.863 35.9366Z" fill="#5F6062"/>
<path d="M92.7421 14.1384V38.2501H89.7771V14.1384H92.7421Z" fill="#5F6062"/>
<path d="M112.491 20.3944V38.2501H109.526V35.6108C108.961 36.5231 108.168 37.24 107.147 37.7613C106.148 38.2609 105.04 38.5107 103.824 38.5107C102.433 38.5107 101.184 38.2283 100.076 37.6636C98.9686 37.0771 98.0889 36.2082 97.4372 35.0569C96.8073 33.9056 96.4923 32.5045 96.4923 30.8536V20.3944H99.4248V30.4626C99.4248 32.2221 99.8701 33.5798 100.761 34.5356C101.651 35.4696 102.868 35.9366 104.41 35.9366C105.996 35.9366 107.245 35.4479 108.157 34.4704C109.069 33.4929 109.526 32.0701 109.526 30.202V20.3944H112.491Z" fill="#5F6062"/>
<path d="M119.973 22.8381V33.3625C119.973 34.2314 120.158 34.8505 120.527 35.2198C120.897 35.5674 121.537 35.7411 122.45 35.7411H124.633V38.2501H121.961C120.31 38.2501 119.072 37.8699 118.247 37.1096C117.421 36.3494 117.008 35.1003 117.008 33.3625V22.8381H114.695V20.3944H117.008V15.8979H119.973V20.3944H124.633V22.8381H119.973Z" fill="#5F6062"/>
<path d="M128.616 17.4944C128.052 17.4944 127.574 17.2989 127.183 16.9079C126.792 16.5169 126.596 16.039 126.596 15.4743C126.596 14.9095 126.792 14.4316 127.183 14.0406C127.574 13.6496 128.052 13.4541 128.616 13.4541C129.16 13.4541 129.616 13.6496 129.985 14.0406C130.376 14.4316 130.571 14.9095 130.571 15.4743C130.571 16.039 130.376 16.5169 129.985 16.9079C129.616 17.2989 129.16 17.4944 128.616 17.4944ZM130.05 20.3944V38.2501H127.085V20.3944H130.05Z" fill="#5F6062"/>
<path d="M141.751 38.5433C140.078 38.5433 138.557 38.1632 137.189 37.4029C135.842 36.6426 134.778 35.5674 133.996 34.1771C133.235 32.7652 132.855 31.136 132.855 29.2896C132.855 27.465 133.246 25.8575 134.028 24.4673C134.832 23.0553 135.918 21.9801 137.287 21.2415C138.655 20.4813 140.187 20.1011 141.881 20.1011C143.575 20.1011 145.107 20.4813 146.475 21.2415C147.844 21.9801 148.919 23.0445 149.701 24.4347C150.505 25.8249 150.907 27.4432 150.907 29.2896C150.907 31.136 150.494 32.7652 149.668 34.1771C148.865 35.5674 147.768 36.6426 146.377 37.4029C144.987 38.1632 143.445 38.5433 141.751 38.5433ZM141.751 35.9366C142.815 35.9366 143.814 35.6868 144.748 35.1872C145.682 34.6876 146.432 33.9382 146.997 32.939C147.583 31.9397 147.876 30.7233 147.876 29.2896C147.876 27.856 147.594 26.6395 147.029 25.6403C146.464 24.6411 145.726 23.9025 144.813 23.4246C143.901 22.925 142.913 22.6752 141.848 22.6752C140.762 22.6752 139.763 22.925 138.851 23.4246C137.96 23.9025 137.243 24.6411 136.7 25.6403C136.157 26.6395 135.886 27.856 135.886 29.2896C135.886 30.745 136.146 31.9723 136.668 32.9715C137.211 33.9708 137.927 34.7202 138.818 35.2198C139.709 35.6977 140.686 35.9366 141.751 35.9366Z" fill="#5F6062"/>
<path d="M162.364 20.0685C164.537 20.0685 166.296 20.7311 167.643 22.0561C168.99 23.3595 169.663 25.2493 169.663 27.7256V38.2501H166.731V28.1492C166.731 26.368 166.285 25.0103 165.395 24.0763C164.504 23.1205 163.288 22.6426 161.745 22.6426C160.181 22.6426 158.932 23.1314 157.998 24.1089C157.086 25.0864 156.63 26.5092 156.63 28.3773V38.2501H153.665V20.3944H156.63V22.9359C157.216 22.0235 158.009 21.3176 159.008 20.8179C160.029 20.3183 161.148 20.0685 162.364 20.0685Z" fill="#5F6062"/>
<path d="M180.567 38.4781C179.068 38.4781 177.721 38.2175 176.527 37.6961C175.354 37.1531 174.431 36.4145 173.757 35.4805C173.084 34.5247 172.736 33.4277 172.714 32.1895H175.875C175.984 33.2539 176.418 34.1554 177.178 34.894C177.96 35.6108 179.09 35.9692 180.567 35.9692C181.979 35.9692 183.087 35.6217 183.891 34.9266C184.716 34.2097 185.129 33.2974 185.129 32.1895C185.129 31.3207 184.89 30.6147 184.412 30.0716C183.934 29.5286 183.337 29.1158 182.62 28.8335C181.903 28.5511 180.936 28.247 179.72 27.9211C178.221 27.5301 177.016 27.1391 176.103 26.7481C175.213 26.3571 174.441 25.7489 173.79 24.9235C173.16 24.0763 172.845 22.9467 172.845 21.5348C172.845 20.2966 173.16 19.1996 173.79 18.2439C174.42 17.2881 175.299 16.5495 176.429 16.0282C177.58 15.5069 178.894 15.2462 180.372 15.2462C182.5 15.2462 184.238 15.7784 185.585 16.8428C186.953 17.9072 187.725 19.3191 187.898 21.0786H184.64C184.531 20.2097 184.075 19.4494 183.272 18.7978C182.468 18.1244 181.403 17.7877 180.078 17.7877C178.84 17.7877 177.83 18.1135 177.048 18.7652C176.266 19.3951 175.875 20.2858 175.875 21.437C175.875 22.2625 176.103 22.9359 176.559 23.4572C177.037 23.9785 177.613 24.3804 178.286 24.6628C178.981 24.9235 179.948 25.2276 181.186 25.5751C182.685 25.9878 183.891 26.4006 184.803 26.8133C185.715 27.2043 186.497 27.8234 187.149 28.6705C187.801 29.496 188.126 30.6255 188.126 32.0592C188.126 33.167 187.833 34.2097 187.247 35.1872C186.66 36.1647 185.791 36.9576 184.64 37.5658C183.489 38.174 182.131 38.4781 180.567 38.4781Z" fill="#5F6062"/>
<path d="M194.966 22.8381V33.3625C194.966 34.2314 195.151 34.8505 195.52 35.2198C195.889 35.5674 196.53 35.7411 197.442 35.7411H199.626V38.2501H196.954C195.303 38.2501 194.065 37.8699 193.239 37.1096C192.414 36.3494 192.001 35.1003 192.001 33.3625V22.8381H189.688V20.3944H192.001V15.8979H194.966V20.3944H199.626V22.8381H194.966Z" fill="#5F6062"/>
<path d="M205.043 23.2943C205.564 22.2733 206.303 21.4805 207.258 20.9157C208.236 20.3509 209.42 20.0685 210.81 20.0685V23.1314H210.028C206.705 23.1314 205.043 24.9343 205.043 28.5402V38.2501H202.078V20.3944H205.043V23.2943Z" fill="#5F6062"/>
<path d="M220.88 38.5433C219.207 38.5433 217.687 38.1632 216.318 37.4029C214.971 36.6426 213.907 35.5674 213.125 34.1771C212.365 32.7652 211.985 31.136 211.985 29.2896C211.985 27.465 212.376 25.8575 213.158 24.4673C213.961 23.0553 215.047 21.9801 216.416 21.2415C217.784 20.4813 219.316 20.1011 221.01 20.1011C222.705 20.1011 224.236 20.4813 225.604 21.2415C226.973 21.9801 228.048 23.0445 228.83 24.4347C229.634 25.8249 230.036 27.4432 230.036 29.2896C230.036 31.136 229.623 32.7652 228.798 34.1771C227.994 35.5674 226.897 36.6426 225.507 37.4029C224.116 38.1632 222.574 38.5433 220.88 38.5433ZM220.88 35.9366C221.944 35.9366 222.943 35.6868 223.878 35.1872C224.812 34.6876 225.561 33.9382 226.126 32.939C226.712 31.9397 227.006 30.7233 227.006 29.2896C227.006 27.856 226.723 26.6395 226.158 25.6403C225.594 24.6411 224.855 23.9025 223.943 23.4246C223.03 22.925 222.042 22.6752 220.978 22.6752C219.891 22.6752 218.892 22.925 217.98 23.4246C217.089 23.9025 216.372 24.6411 215.829 25.6403C215.286 26.6395 215.015 27.856 215.015 29.2896C215.015 30.745 215.276 31.9723 215.797 32.9715C216.34 33.9708 217.057 34.7202 217.947 35.2198C218.838 35.6977 219.815 35.9366 220.88 35.9366Z" fill="#5F6062"/>
<path d="M241.494 20.0685C243.666 20.0685 245.425 20.7311 246.772 22.0561C248.119 23.3595 248.792 25.2493 248.792 27.7256V38.2501H245.86V28.1492C245.86 26.368 245.415 25.0103 244.524 24.0763C243.633 23.1205 242.417 22.6426 240.875 22.6426C239.311 22.6426 238.062 23.1314 237.128 24.1089C236.215 25.0864 235.759 26.5092 235.759 28.3773V38.2501H232.794V20.3944H235.759V22.9359C236.345 22.0235 237.138 21.3176 238.138 20.8179C239.159 20.3183 240.277 20.0685 241.494 20.0685Z" fill="#5F6062"/>
<path d="M259.859 20.1011C261.402 20.1011 262.748 20.4378 263.9 21.1112C265.073 21.7846 265.941 22.6318 266.506 23.6527V20.3944H269.504V38.6411C269.504 40.2702 269.156 41.7148 268.461 42.9746C267.766 44.2563 266.767 45.2555 265.464 45.9723C264.182 46.6892 262.683 47.0476 260.967 47.0476C258.621 47.0476 256.666 46.4937 255.102 45.3858C253.538 44.278 252.615 42.7683 252.333 40.8567H255.265C255.591 41.9428 256.264 42.8117 257.285 43.4634C258.306 44.1368 259.533 44.4735 260.967 44.4735C262.596 44.4735 263.921 43.963 264.942 42.9421C265.985 41.9211 266.506 40.4874 266.506 38.6411V34.894C265.92 35.9366 265.051 36.8055 263.9 37.5006C262.748 38.1958 261.402 38.5433 259.859 38.5433C258.274 38.5433 256.829 38.1523 255.526 37.3703C254.244 36.5883 253.234 35.4913 252.495 34.0794C251.757 32.6674 251.388 31.06 251.388 29.257C251.388 27.4324 251.757 25.8358 252.495 24.4673C253.234 23.0771 254.244 22.0018 255.526 21.2415C256.829 20.4813 258.274 20.1011 259.859 20.1011ZM266.506 29.2896C266.506 27.9428 266.235 26.7698 265.692 25.7706C265.149 24.7714 264.41 24.0111 263.476 23.4898C262.564 22.9467 261.554 22.6752 260.446 22.6752C259.338 22.6752 258.328 22.9359 257.416 23.4572C256.503 23.9785 255.775 24.7388 255.232 25.738C254.689 26.7373 254.418 27.9103 254.418 29.257C254.418 30.6255 254.689 31.8203 255.232 32.8412C255.775 33.8404 256.503 34.6116 257.416 35.1546C258.328 35.676 259.338 35.9366 260.446 35.9366C261.554 35.9366 262.564 35.676 263.476 35.1546C264.41 34.6116 265.149 33.8404 265.692 32.8412C266.235 31.8203 266.506 30.6364 266.506 29.2896Z" fill="#5F6062"/>
<path d="M30.3074 8.45806L22.5707 0.542213C21.8636 -0.180738 20.7137 -0.180738 20.0067 0.542213C20.0067 0.542213 7.37452 13.4592 3.16383 17.7649C-1.05135 22.0752 -1.05135 29.0622 3.16383 33.3679C4.10352 34.3287 5.17745 35.0654 6.32299 35.6008L30.2985 11.0845C30.2985 11.0845 30.303 11.0845 30.3074 11.0799C31.0145 10.3524 31.0145 9.18102 30.3074 8.45806Z" fill="#00ABDF"/>
<path d="M22.3963 50.453C22.3963 50.453 35.0284 37.536 39.2391 33.2304C43.4543 28.9201 43.4543 21.9285 39.2391 17.6228C38.2994 16.662 37.2254 15.9298 36.08 15.3945L12.1044 39.9153C12.1044 39.9153 12.1 39.9153 12.0954 39.9245C11.3884 40.6475 11.3884 41.8188 12.0954 42.5463L19.8322 50.4576C20.5393 51.1806 21.6893 51.1806 22.3963 50.4576V50.453Z" fill="#0079C1"/>
<path d="M23.9309 17.5955L6.33179 35.5914C10.3188 37.4766 15.1962 36.7491 18.4851 33.386L36.0842 15.3946C32.0972 13.5094 27.2197 14.237 23.9309 17.6V17.5955Z" fill="#00447C"/>
<path d="M6.89571 16.7715C5.8934 16.7715 4.91344 16.8492 3.94243 16.9682C3.66052 17.2565 3.39651 17.5264 3.16383 17.7643C-1.05135 22.0746 -1.05135 29.0616 3.16383 33.3673C4.10352 34.3281 5.17745 35.0648 6.32299 35.6002L20.5839 21.0131C16.6685 18.3317 11.9611 16.7668 6.89571 16.7668V16.7715Z" fill="#54BCEB"/>
<path d="M12.1044 39.9153C12.1044 39.9153 12.1 39.9153 12.0954 39.9245C11.3884 40.6474 11.3884 41.8188 12.0954 42.5463L19.8322 50.4576C20.5393 51.1805 21.6893 51.1805 22.3963 50.4576C22.3963 50.4576 26.9426 45.8087 31.4889 41.1599C31.301 35.3626 29.2247 30.0503 25.8284 25.8818L12.1044 39.9153Z" fill="#0093D0"/>
<path d="M6.33179 35.5917C10.3188 37.4769 15.1962 36.7494 18.4851 33.3862L25.8415 25.8639C24.3246 24.0017 22.5527 22.3682 20.5793 21.0183L6.33179 35.5872V35.5917Z" fill="#174A7C"/>
<path d="M0 25.9963C0.0984436 28.6776 1.13658 31.3269 3.14125 33.3722C4.08094 34.3332 5.15487 35.0698 6.30042 35.6051L15.5899 26.1015C13.1154 25.1498 10.4529 24.6099 7.65179 24.6099C4.85059 24.6099 2.3895 25.1178 0 25.9963Z" fill="#72CDF4"/>
<path d="M21.9396 29.8401L12.0863 39.9156C12.0863 39.9156 12.0819 39.9156 12.0773 39.9248C11.3704 40.6477 11.3704 41.8191 12.0773 42.5466L19.8141 50.4579C20.5211 51.1809 21.6712 51.1809 22.3782 50.4579C22.3782 50.4579 25.8461 46.9118 29.748 42.9218C28.6607 37.6873 25.8461 33.1116 21.9396 29.8446V29.8401Z" fill="#009DDC"/>
<path d="M6.31372 35.5917C10.3007 37.4769 15.1781 36.7493 18.4671 33.3862L21.9528 29.8218C20.0645 28.2432 17.9167 26.9941 15.5943 26.1018L6.31372 35.5917Z" fill="#005581"/>
<path d="M30.3165 11.0849C30.3165 11.0849 30.3209 11.0849 30.3254 11.0802C30.661 10.7325 30.8266 10.2887 30.84 9.83569L5.87109 35.3632C6.02322 35.4455 6.1754 35.5325 6.33648 35.6057L30.3165 11.0849Z" fill="#0096D6"/>
<path d="M36.5047 15.6187C36.3615 15.5455 36.2228 15.4632 36.0752 15.3945L12.0952 39.9153C12.0952 39.9153 12.0907 39.9153 12.0862 39.9245C11.7596 40.254 11.594 40.684 11.5671 41.1187L36.5047 15.6233V15.6187Z" fill="#00ABDF"/>
</svg>
