<svg width="198" height="64" viewBox="0 0 198 64" fill="none" xmlns="http://www.w3.org/2000/svg">
<g clip-path="url(#clip0_3_53)">
<path d="M19.5903 14.9602C16.4976 14.2435 13.7385 12.5023 11.7613 10.0196C9.78415 7.53694 8.70526 4.45879 8.70003 1.28558H0.749595C0.749682 4.82301 1.60405 8.30815 3.2401 11.4449C4.87615 14.5816 7.24554 17.2773 10.147 19.3028C7.24248 21.3264 4.86994 24.0213 3.23114 27.1582C1.59234 30.2951 0.73577 33.7812 0.734283 37.3201H8.70003C8.70526 34.1469 9.78415 31.0687 11.7613 28.586C13.7385 26.1034 16.4976 24.3622 19.5903 23.6455V14.9602Z" fill="#FF5510"/>
<path d="M147.012 38.6669C143.257 38.6618 139.657 37.1687 137.002 34.5149C134.347 31.8611 132.854 28.2632 132.849 24.5102V14.1567C132.849 10.4021 134.341 6.80129 136.997 4.1464C139.653 1.4915 143.255 0 147.012 0C150.768 0 154.37 1.4915 157.026 4.1464C159.682 6.80129 161.175 10.4021 161.175 14.1567V24.5102C161.175 28.2648 159.682 31.8656 157.026 34.5205C154.37 37.1754 150.768 38.6669 147.012 38.6669ZM147.012 7.94305C145.364 7.94608 143.784 8.6017 142.619 9.76633C141.454 10.931 140.798 12.5097 140.795 14.1567V24.5102C140.835 26.132 141.508 27.6738 142.67 28.8066C143.832 29.9394 145.391 30.5734 147.014 30.5734C148.637 30.5734 150.195 29.9394 151.357 28.8066C152.519 27.6738 153.192 26.132 153.232 24.5102V14.1567C153.23 12.5083 152.574 10.9281 151.408 9.76251C150.242 8.59695 148.661 7.94124 147.012 7.93922" fill="white"/>
<path d="M116.381 1.20905V15.3275H103.945V1.20905H95.9941V37.3851H103.945V23.2743H116.381V37.3851H124.328V1.20905H116.381Z" fill="white"/>
<path d="M86.8417 13.996C86.8417 10.2414 85.3495 6.64059 82.6934 3.9857C80.0374 1.33081 76.4349 -0.160698 72.6787 -0.160698C68.9224 -0.160698 65.32 1.33081 62.6639 3.9857C60.0078 6.64059 58.5156 10.2414 58.5156 13.996V37.3851H66.4661V26.7064H78.9027V37.3851H86.8494V13.996H86.8417ZM78.9027 18.748H66.4661V14.1567C66.4455 13.3275 66.5911 12.5025 66.8943 11.7304C67.1976 10.9583 67.6523 10.2547 68.2318 9.66092C68.8113 9.06716 69.5037 8.59531 70.2684 8.27314C71.0331 7.95097 71.8546 7.785 72.6844 7.785C73.5142 7.785 74.3357 7.95097 75.1004 8.27314C75.8651 8.59531 76.5575 9.06716 77.137 9.66092C77.7165 10.2547 78.1712 10.9583 78.4745 11.7304C78.7777 12.5025 78.9233 13.3275 78.9027 14.1567V18.748Z" fill="white"/>
<path d="M197.677 13.996C197.677 10.2414 196.185 6.64059 193.529 3.9857C190.873 1.33081 187.27 -0.160698 183.514 -0.160698C179.758 -0.160698 176.155 1.33081 173.499 3.9857C170.843 6.64059 169.351 10.2414 169.351 13.996V37.3851H177.298V26.7064H189.738V37.3851H197.685V13.996H197.677ZM189.738 18.748H177.298V14.1567C177.298 12.5077 177.953 10.9263 179.119 9.76027C180.286 8.59427 181.868 7.93922 183.518 7.93922C185.168 7.93922 186.75 8.59427 187.916 9.76027C189.083 10.9263 189.738 12.5077 189.738 14.1567V18.748Z" fill="white"/>
<path d="M42.1592 19.3028C45.0635 17.279 47.4359 14.5841 49.0746 11.4472C50.7134 8.31038 51.5701 4.82436 51.5719 1.28558H43.6253C43.6194 4.9101 42.2127 8.3922 39.699 11.0046C37.1854 13.6169 33.7591 15.1575 30.136 15.3045V1.24731H22.1855V37.3851H30.136V23.3011C33.7591 23.4482 37.1854 24.9887 39.699 27.6011C42.2127 30.2134 43.6194 33.6955 43.6253 37.3201H51.5719C51.5704 33.7812 50.7139 30.2951 49.0751 27.1582C47.4363 24.0213 45.0637 21.3264 42.1592 19.3028Z" fill="white"/>
</g>
<path d="M68.418 61.0898H63.2526L62.4865 63.4324H57.3867L63.0556 47.9316H68.6588L74.3058 63.4324H69.1841L68.418 61.0898ZM67.2361 57.4335L65.8353 53.1204L64.4345 57.4335H67.2361Z" fill="#00A7E1"/>
<path d="M74.972 55.6601C74.972 54.1275 75.2784 52.7628 75.8913 51.5659C76.5187 50.3691 77.4088 49.4422 78.5615 48.7854C79.7143 48.114 81.0713 47.7783 82.6326 47.7783C83.9751 47.7783 85.1716 48.0337 86.2222 48.5446C87.2874 49.0409 88.1483 49.7488 88.8049 50.6683C89.4761 51.5878 89.9212 52.6606 90.14 53.8867H85.0184C84.7849 53.3758 84.4493 52.9818 84.0115 52.7044C83.5884 52.4125 83.0996 52.2666 82.5451 52.2666C81.7279 52.2666 81.0786 52.5731 80.5971 53.1861C80.1301 53.7991 79.8967 54.6238 79.8967 55.6601C79.8967 56.6964 80.1301 57.5211 80.5971 58.1341C81.0786 58.7471 81.7279 59.0537 82.5451 59.0537C83.0996 59.0537 83.5884 58.915 84.0115 58.6377C84.4493 58.3458 84.7849 57.9444 85.0184 57.4335H90.14C89.9212 58.6596 89.4761 59.7324 88.8049 60.6519C88.1483 61.5715 87.2874 62.2867 86.2222 62.7975C85.1716 63.2938 83.9751 63.5419 82.6326 63.5419C81.0713 63.5419 79.7143 63.2135 78.5615 62.5567C77.4088 61.8853 76.5187 60.9511 75.8913 59.7543C75.2784 58.5574 74.972 57.1927 74.972 55.6601Z" fill="#00A7E1"/>
<path d="M104.059 47.9316V51.7849H99.9441V63.4324H95.0851V51.7849H91.014V47.9316H104.059Z" fill="#00A7E1"/>
<path d="M110.236 47.9316V63.4324H105.377V47.9316H110.236Z" fill="#00A7E1"/>
<path d="M128.036 47.9316L122.827 63.4324H116.545L111.336 47.9316H116.502L119.697 58.5939L122.871 47.9316H128.036Z" fill="#00A7E1"/>
<path d="M133.983 51.8068V53.7115H138.798V57.3678H133.983V59.5572H139.455V63.4324H129.124V47.9316H139.455V51.8068H133.983Z" fill="#00A7E1"/>
<defs>
<clipPath id="clip0_3_53">
<rect width="197.566" height="38.6669" fill="white" transform="translate(0.434204)"/>
</clipPath>
</defs>
</svg>
